<?xml version="1.0" encoding="UTF-8" standalone="no"?>
<!-- Created with Inkscape (http://www.inkscape.org/) -->
<!-- http://www.keymile.com/media/de/internet/about_keymile/KEYMILE_Company_Profile.pdf -->
<svg
   xmlns:svg="http://www.w3.org/2000/svg"
   xmlns="http://www.w3.org/2000/svg"
   version="1.0"
   width="248.03"
   height="47.16">
  <path
     d="M 0,0 L 0,47.16 L 47.12,47.16 L 47.12,37.19 L 41.88,37.19 L 41.88,41.88 L 5.28,41.88 L 5.28,5.31 L 41.88,5.31 L 41.88,9.97 L 47.12,9.97 L 47.12,0 L 0,0 z M 18.88,16.47 L 18.88,30.69 L 33.09,30.69 L 33.09,16.47 L 18.88,16.47 z M 37.38,16.47 L 37.38,30.69 L 51.59,30.69 L 51.59,16.47 L 37.38,16.47 z M 55.88,16.47 L 55.88,30.69 L 70.09,30.69 L 70.09,16.47 L 55.88,16.47 z"
     style="fill:#f78b1a;fill-opacity:1;fill-rule:nonzero;stroke:none" />
  <path
     d="M 192.94,11.84 L 192.94,35.31 L 197.88,35.31 L 197.88,11.84 L 192.94,11.84 z M 78.88,11.88 L 78.88,35.31 L 83.81,35.31 L 83.81,28.03 L 87.78,24.5 L 96.59,35.31 L 103.25,35.31 L 91.62,21.38 L 102.56,11.88 L 95.78,11.88 L 83.81,22.72 L 83.81,11.88 L 78.88,11.88 z M 105.91,11.88 L 105.91,35.31 L 126.53,35.31 L 126.53,31.63 L 110.84,31.63 L 110.84,25.13 L 125.66,25.13 L 125.66,21.44 L 110.84,21.44 L 110.84,15.53 L 126.28,15.53 L 126.28,11.88 L 105.91,11.88 z M 127.91,11.88 L 138.16,26.38 L 138.16,35.31 L 143.09,35.31 L 143.09,26.38 L 153.34,11.88 L 147.31,11.88 L 140.62,22.31 L 133.91,11.88 L 127.91,11.88 z M 155.78,11.88 L 155.78,35.31 L 160.41,35.31 L 160.19,15.94 L 160.28,15.94 L 168.88,35.31 L 173.06,35.31 L 181.75,15.94 L 181.81,15.94 L 181.62,35.31 L 186.25,35.31 L 186.25,11.88 L 179.22,11.88 L 171.06,30.06 L 162.88,11.88 L 155.78,11.88 z M 204.56,11.88 L 204.56,35.31 L 223.75,35.31 L 223.75,31.44 L 209.5,31.44 L 209.5,11.88 L 204.56,11.88 z M 227.41,11.88 L 227.41,35.31 L 248.03,35.31 L 248.03,31.63 L 232.31,31.63 L 232.31,25.13 L 247.12,25.13 L 247.12,21.44 L 232.31,21.44 L 232.31,15.53 L 247.75,15.53 L 247.75,11.88 L 227.41,11.88 z"
     style="fill:#231f20;fill-opacity:1;fill-rule:nonzero;stroke:none" />
</svg>
